# xmcd
#
# Track frame offsets:
#	150
#	13800
#	27159
#	38521
#	50278
#	65090
#	84525
#	99900
#	114403
#	127696
#	137521
#	153140
#
# Disc length: 2159 seconds
#
# Revision: 1
# Processed by: cddbd v1.5.2PL0 Copyright (c) Steve Scherf et al.
# Submitted via: audiograbber 1.83.01
#
DISCID=86086d0c
DTITLE=Bernhard Reider - Liebeslieder and Chansons
DYEAR=2012
DGENRE=Ballad
TTITLE0=schliaf her zu mir
TTITLE1=ins bett foin un die wöd vaschlofn
TTITLE2=loan di einfoch aun bei mir
TTITLE3=i find di einfoch schee
TTITLE4=is des a zuafoi oda is´ a beschdimmung
TTITLE5=jo, de dodn haums guad
TTITLE6=daun griag i tausnd bussi
TTITLE7=altweibersommer
TTITLE8=i hätt jo nur augn für di
TTITLE9=chanson
TTITLE10=mid an damischn kepfal
TTITLE11=heut habe ich das publikum betrogen
EXTD=
EXTT0=
EXTT1=
EXTT2=
EXTT3=
EXTT4=
EXTT5=
EXTT6=
EXTT7=
EXTT8=
EXTT9=
EXTT10=
EXTT11=
PLAYORDER=
